<svg width="16" height="16" viewBox="0 0 16 16" fill="none" xmlns="http://www.w3.org/2000/svg">
<path d="M1.75 14.25H2.66667L12.7708 4.14584L12.3125 3.6875L11.8542 3.22917L1.75 13.3333V14.25ZM0.5 15.5V12.8333L12.75 0.583336C12.9861 0.347225 13.2812 0.232642 13.6354 0.239586C13.9896 0.24653 14.2847 0.368058 14.5208 0.604169L15.4167 1.5C15.6528 1.73611 15.7708 2.02778 15.7708 2.375C15.7708 2.72222 15.6528 3.01389 15.4167 3.25L3.16667 15.5H0.5ZM14.4583 2.35417L13.6042 1.5L14.4583 2.35417ZM12.7708 4.14584L12.3125 3.6875L11.8542 3.22917L12.7708 4.14584Z" fill="#2CA4D8"/>
</svg>
