<svg width="18" height="22" viewBox="0 0 18 22" fill="none" xmlns="http://www.w3.org/2000/svg">
<path d="M0.749817 0.5V21.4989H11.2903C11.6749 21.4992 12.0543 21.41 12.3985 21.2384C12.7427 21.0668 13.0423 20.8175 13.2736 20.5102L17.249 15.2224V0.5H0.749817ZM1.49978 1.24996H16.499V14.862L11.2449 17.2892C11.2996 17.2885 11.3544 17.2905 11.4089 17.295C11.4119 17.295 11.4148 17.295 11.4177 17.295C11.4216 17.2955 11.4255 17.296 11.4294 17.2965C11.862 17.3383 12.263 17.5413 12.5527 17.8652C12.8424 18.1892 12.9995 18.6103 12.9929 19.0448C12.9862 19.4794 12.8163 19.8955 12.5168 20.2104C12.2174 20.5253 11.8104 20.716 11.3767 20.7446C11.3718 20.7451 11.3669 20.7455 11.3621 20.746C11.3382 20.7475 11.3142 20.7485 11.2903 20.7489H1.49978V1.24996ZM15.6743 16.069L13.7408 18.6382C13.7283 18.5569 13.7116 18.4762 13.691 18.3965C13.691 18.396 13.691 18.3956 13.691 18.3951C13.6854 18.3764 13.6795 18.3579 13.6735 18.3394C13.6342 18.1994 13.5828 18.0632 13.5197 17.9322C13.5192 17.9317 13.5187 17.9312 13.5182 17.9307C13.4823 17.8565 13.4427 17.7842 13.3995 17.7139C13.3123 17.5734 13.2112 17.4418 13.0978 17.3214C13.0843 17.3071 13.0706 17.2929 13.0568 17.2789L15.6743 16.069Z" fill="#A8B4B9" stroke="#A8B4B9" stroke-width="0.2"/>
</svg>
